<svg width="14" height="13" viewBox="0 0 14 13" fill="none" xmlns="http://www.w3.org/2000/svg">
<path fill-rule="evenodd" clip-rule="evenodd" d="M6.9 12.5009C10.4346 12.5009 13.3 9.81462 13.3 6.50092C13.3 4.94881 12.6714 3.53436 11.6398 2.46912L11.6543 2.45457C11.8496 2.2593 11.8496 1.94272 11.6543 1.74746C11.4591 1.5522 11.1425 1.5522 10.9472 1.74746L10.8873 1.80738C9.79359 0.989663 8.40768 0.500916 6.9 0.500916C3.36538 0.500916 0.5 3.18721 0.5 6.50092C0.5 8.05345 1.12898 9.46826 2.16108 10.5336L2.14723 10.5475C1.95197 10.7427 1.95197 11.0593 2.14723 11.2546C2.34249 11.4498 2.65907 11.4498 2.85433 11.2546L2.91369 11.1952C4.00726 12.0125 5.39278 12.5009 6.9 12.5009ZM2.91369 11.1952L11.6398 2.46912C11.4084 2.23017 11.1567 2.00879 10.8873 1.80738L2.16108 10.5336C2.39253 10.7725 2.64425 10.9938 2.91369 11.1952Z" fill="#0D3A91"/>
</svg>
